<svg viewBox="0 0 105.12 128.88" xmlns="http://www.w3.org/2000/svg"><path d="M0 0h105.12v128.88H0z" fill="none"/><path d="M88.56 27V16.56H73.91v.25H68v-.25H46.36v.25h-.75v-.25h-11v.25h-.75v-.25h-17.3V27h.25v.75h-.25v48.86h.25v.75h-.25v11.2h17.35v-.25h.75v.25h26.27v-.25h7.88v.25h19.75V77.79h-.25v-1.18h.25V62.46h-.25v-.75h.25V39.08c-.08-.1-.17-.2-.25-.31V31.2h.25v-3.5h-.25V27z" fill="#898d8d"/><path d="M88.56 76.61H68.24l1.24-14.15h19.08v-.75h-19l.85-9.66h.54a17.91 17.91 0 0 0 17.3-13.38l.32.4V31.2a17.27 17.27 0 0 0-1-3.5h1V27h-1.29a17.94 17.94 0 0 0-13.37-10.44H68A18 18 0 0 0 54.59 27h-8.23V16.56h-.75V27h-11V16.56h-.75V27h-17.3v.75h17.35v48.86H16.56v.75h17.35v11.2h.75v-11.2h6.17a31 31 0 0 0 20.1 11.2h7.88a30.9 30.9 0 0 0 19.75-10.77zM86.46 27H72.6l.86-9.7a17.17 17.17 0 0 1 13 9.7zm-15.52-9.94a17.19 17.19 0 0 1 1.77.09L71.85 27H55.42a17.16 17.16 0 0 1 15.52-9.94zM57.09 45.48c-.71 3.16-2.82 4.61-6.56 4.61h-4.17V34a29.79 29.79 0 0 1 7.25-4.17 17.58 17.58 0 0 0-.55 4.38 17.85 17.85 0 0 0 4.03 11.27zM46.36 33v-3.45h5.92A31.24 31.24 0 0 0 46.36 33zm-11.7-3.47h4.06v11.74a30.64 30.64 0 0 0-4.06 9.78zm4.06 13.16V73a30.24 30.24 0 0 1 0-30.27zm-4.06 21.95a30.73 30.73 0 0 0 4.06 9.78v.34h-4.06zm30.22 23.42a30.16 30.16 0 0 1-23.07-10.7h25.61L66.48 88c-.48.05-1.07.06-1.6.06zm2.36-.06l.93-10.61h19.77A30.13 30.13 0 0 1 67.24 88zm1.55-26.26h-2.07a17.67 17.67 0 0 1-.19 1.9c-.93 6.92-4.68 11.15-10.19 11.15h-10V52.86h4.11c5.88 0 6.91 2.29 6.91 7.11v.6h2.77V48.43A17.78 17.78 0 0 0 69.65 52zm.92-10.45a17 17 0 0 1-9.56-3.79V42h-2.77v.59a14.25 14.25 0 0 1-.07 1.5l-.05.38a17.09 17.09 0 0 1-2.81-14.93h1.79c5 0 7.87 2.63 8.66 7.83a12 12 0 0 1 .1 1.94h2.91l-.86-11.61a30.05 30.05 0 0 1 4.67.7zm1.23.05h-.48l2-22.71A30.17 30.17 0 0 1 87.64 38a17.15 17.15 0 0 1-16.7 13.31zm17.12-17.16a16.93 16.93 0 0 1-.24 2.87 31 31 0 0 0-15.3-9.22v-.13h14.27a17 17 0 0 1 1.27 6.48z" fill="#fff"/><path d="M37.49 95.42a4.63 4.63 0 0 1-2 .34H34v.53h1.7v7.87a3.14 3.14 0 0 0-2.8-2.09c-2 0-4 2-4 5.23s1.82 5.32 4.16 5.32a2.91 2.91 0 0 0 2.61-1.88v1.58H39v-.53h-1.51zm-1.79 13.67c-.4 1.61-1.2 3-2.69 3S31 111 31 108.7v-2.78c0-2.17.69-3.3 2-3.3s2.29 1.42 2.71 3.21zm14.78-6.71h3.17v.53c-1 0-1.24.34-1.69 1.62l-2.91 8.25h-.22l-2.42-6.6-2.36 6.6h-.2l-3.62-9.87h-1.14v-.53h4.23v.53h-1l2.41 6.56 1.45-4.06-.92-2.5H44v-.53h4.63v.53h-1.37l2.4 6.56 1.68-4.82a3.3 3.3 0 0 0 .27-1.14c0-.4-.19-.6-.77-.6h-.36zm-23.7 5.07h.53l-.43 4.87H15.77v-.53h1.59v-15.5h-1.59v-.53h10.71l.28 3.76h-.55a2.37 2.37 0 0 0-.05-.48 2.87 2.87 0 0 0-3.11-2.75h-3.52v7.25h1.55c2.06 0 2.51-1.29 2.51-2.71h.53v5.84h-.53c0-1.67-.37-2.59-2.53-2.59h-1.53v7.71h3.55c2 0 3.3-1.44 3.63-3.87zm53.53-12a4.6 4.6 0 0 1-2 .34h-1.5v.53h1.72v7.87a3.13 3.13 0 0 0-2.8-2.09c-2 0-4 2-4 5.23s1.82 5.32 4.17 5.32a2.9 2.9 0 0 0 2.6-1.88v1.58h3.25v-.53h-1.44zm-1.78 13.67c-.41 1.61-1.2 3-2.69 3s-2.07-1.09-2.07-3.4v-2.78c0-2.17.69-3.3 2-3.3s2.29 1.42 2.71 3.21zm10.68 0c0 2.16-1.16 3.55-2.88 3.55a4.53 4.53 0 0 1-2.46-.91c-.28 0-.39.17-.39.67h-.54v-3.52h.4c.22 2 1.62 3.23 2.84 3.23a2 2 0 0 0 2.16-2.22c0-1.21-.88-1.83-2.33-1.91-1.86-.11-2.93-1.1-2.93-2.86a2.8 2.8 0 0 1 2.63-3.06 4.49 4.49 0 0 1 2.09.65c.19 0 .25-.14.25-.42a.9.9 0 0 0 0-.26h.54v3h-.43c-.31-1.66-1.09-2.39-2.41-2.39a1.78 1.78 0 0 0-1.83 1.71 1.72 1.72 0 0 0 .34 1.08c.56.62 1.49.56 2.58.73a2.72 2.72 0 0 1 2.37 2.94zm-27.5 2.66c-.43 0-.52-.54-.52-1.35v-5.16c0-2.26-1.42-3.21-3.38-3.21s-3.17 1.16-3.17 2.65a1 1 0 0 0 .94 1.11 1 1 0 0 0 .94-1c0-.93-.57-.71-.57-1.32s.76-.85 1.82-.85 1.63.57 1.63 1.8v2.32h-.29c-3.46 0-5.09 1.15-5.09 3.32a2.63 2.63 0 0 0 2.72 2.61 2.8 2.8 0 0 0 2.75-1.7 1.66 1.66 0 0 0 1.6 1.58 2.32 2.32 0 0 0 1.94-1.3l-.42-.31c-.32.44-.61.82-.9.82zm-2.31-2c-.4 1.29-1.1 2.2-2 2.2s-1.49-.75-1.49-2.16c0-1.78.82-2.6 2.89-2.6h.64zm11.47-6.17a.95.95 0 1 1-1.88 0 .92.92 0 0 1 .59-1 .36.36 0 0 0-.24-.09c-1 0-2.45 2.29-2.45 4.76v4.42h1.42v.53h-4.63v-.53h1.42v-8.88h-1.42v-.53h1.22a4.68 4.68 0 0 0 2-.34v2.53c.58-1.46 1.39-2.5 2.59-2.5a1.45 1.45 0 0 1 1.38 1.68z" fill="#262424"/></svg>