<?xml version="1.0" encoding="utf-8"?>
<svg width="273px" height="82px" viewBox="0 0 273 82" version="1.1" xmlns:xlink="http://www.w3.org/1999/xlink" xmlns="http://www.w3.org/2000/svg">
  <desc>Created with Lunacy</desc>
  <g id="edwards-logo-copy">
    <path d="M80.8844 11.7282L80.8844 0L64.4266 0L64.4266 0.280848L57.7874 0.280848L57.7874 0L33.4771 0L33.4771 0.280848L32.6346 0.280848L32.6346 0L20.2773 0L20.2773 0.280848L19.4347 0.280848L19.4347 0L0 0L0 11.7282L0.280848 11.7282L0.280848 12.5708L0 12.5708L0 67.4598L0.280848 67.4598L0.280848 68.3023L0 68.3023L0 80.8844L19.4909 80.8844L19.4909 80.6035L20.3334 80.6035L20.3334 80.8844L49.845 80.8844L49.845 80.6035L58.6973 80.6035L58.6973 80.8844L80.8844 80.8844L80.8844 68.7854L80.6035 68.7854L80.6035 67.4598L80.8844 67.4598L80.8844 51.5638L80.6035 51.5638L80.6035 50.7212L80.8844 50.7212L80.8844 25.2988C80.7945 25.1865 80.6934 25.0742 80.6035 24.9506L80.6035 16.4465L80.8844 16.4465L80.8844 12.5146L80.6035 12.5146L80.6035 11.7282L80.8844 11.7282Z" transform="translate(0.9885964 0.7414966)" id="Path" fill="#898D8D" stroke="none" />
    <path d="M80.8731 67.4598L58.0489 67.4598L59.4417 51.5638L80.8731 51.5638L80.8731 50.7212L59.5316 50.7212L60.4864 39.8692L61.0929 39.8692C70.2321 39.8551 78.2133 33.6815 80.5249 24.8382L80.8844 25.2876L80.8844 16.4465C80.6495 15.0999 80.273 13.782 79.7611 12.5146L80.8844 12.5146L80.8844 11.7282L79.4354 11.7282C76.7104 5.54924 71.0722 1.14599 64.4177 0L57.7794 0C51.1131 1.14353 45.4601 5.54512 42.7167 11.7282L33.4725 11.7282L33.4725 0L32.6301 0L32.6301 11.7282L20.2744 11.7282L20.2744 0L19.432 0L19.432 11.7282L0 11.7282L0 12.5708L19.4882 12.5708L19.4882 67.4598L0 67.4598L0 68.3023L19.4882 68.3023L19.4882 80.8844L20.3306 80.8844L20.3306 68.3023L27.261 68.3023C32.8941 75.2378 40.9771 79.7425 49.8381 80.8844L58.6892 80.8844C67.3411 79.7823 75.2611 75.4628 80.8731 68.7854L80.8731 67.4598ZM61.0817 0.561697C61.7457 0.561186 62.4093 0.594933 63.0698 0.662802L62.1038 11.7282L43.649 11.7282C46.7987 4.93612 53.5957 0.582297 61.0817 0.561697ZM62.9462 11.7282L78.5143 11.7282C75.7773 5.88058 70.2964 1.7904 63.9122 0.831311L62.9462 11.7282ZM48.9619 34.7578C52.016 37.2518 55.767 38.739 59.7001 39.0155L61.9578 13.301C60.2326 12.9016 58.4787 12.6387 56.7123 12.5146L57.6783 25.5572L54.4096 25.5572C54.4311 24.8289 54.3936 24.1001 54.2973 23.3778C53.41 17.5362 50.1863 14.5817 44.5701 14.5817L42.5595 14.5817C40.9326 20.3585 42.1003 26.5639 45.7158 31.3539L45.7719 30.927C45.8277 30.3671 45.854 29.8046 45.8506 29.2419L45.8506 28.5791L48.9619 28.5791L48.9619 34.7578ZM80.0419 23.0183C80.2232 21.9532 80.3134 20.8746 80.3115 19.7942C80.3163 17.2977 79.8317 14.8246 78.885 12.5146L62.8564 12.5146L62.8564 12.6606C69.477 14.3519 75.4537 17.9541 80.0419 23.0183ZM61.0817 39.0716L60.5425 39.0716L62.789 13.5594C69.4035 15.2689 75.347 18.9381 79.8397 24.0856C77.8311 32.8301 70.0528 39.0303 61.0817 39.0379L61.0817 39.0716ZM24.8909 14.5704L20.3306 14.5704L20.3306 38.7458C21.2016 34.8466 22.7448 31.1289 24.8909 27.7591L24.8909 14.5704ZM33.4725 18.4686L33.4725 14.5929L40.1221 14.5929C37.7701 15.637 35.5402 16.9368 33.4725 18.4686ZM38.1564 37.6674C42.3573 37.6674 44.7273 36.0385 45.5248 32.4885C42.6041 28.9151 41.0053 24.4434 40.9982 19.8279C40.9966 18.1683 41.2041 16.5151 41.616 14.9074C38.6947 16.0782 35.9532 17.6552 33.4725 19.592L33.4725 37.6674L38.1564 37.6674ZM24.8909 29.3992L24.8909 63.4044C18.8104 52.885 18.8104 39.9186 24.8909 29.3992ZM58.6667 50.7549L56.3416 50.7549C56.309 51.4697 56.2377 52.1823 56.1282 52.8894C55.0836 60.6633 50.8714 65.4152 44.6824 65.4152L33.45 65.4152L33.45 40.7792L38.0665 40.7792C44.6712 40.7792 45.8281 43.3518 45.8281 48.7665L45.8281 49.4406L48.9395 49.4406L48.9395 35.8026C52.0376 38.1519 55.7539 39.5457 59.6327 39.8131L58.6667 50.7549ZM24.8909 64.9996C22.7466 61.6288 21.2036 57.9114 20.3306 54.0128L20.3306 65.3815L24.8909 65.3815L24.8909 64.9996ZM54.2749 80.3227C44.2878 80.3319 34.8056 75.9334 28.3618 68.3023L57.1279 68.3023L56.072 80.2553C55.5329 80.3114 54.8702 80.3227 54.2749 80.3227ZM57.9703 68.336L56.9257 80.2552C65.9588 79.5551 74.3341 75.2617 80.1767 68.336L57.9703 68.336Z" transform="translate(0.9885964 0.7414966)" id="Shape" fill="#FFFFFF" fill-rule="evenodd" stroke="none" />
    <path d="M49.6789 0C48.2303 0.598594 46.668 0.866153 45.1044 0.78341L41.6964 0.78341L41.6964 2.00461L45.5848 2.00461L45.5848 20.1382C44.6155 17.3743 42.0865 15.4726 39.1805 15.3226C34.606 15.3226 30.0315 19.9309 30.0315 27.3733C30.0315 34.8157 34.1943 39.6313 39.5464 39.6313C42.2197 39.5272 44.5712 37.8208 45.5161 35.2995L45.5161 38.9401L53.1327 38.9401L53.1327 37.7189L49.6789 37.7189L49.6789 0ZM147.619 0.0691244C146.171 0.669953 144.608 0.937598 143.044 0.852535L139.613 0.852535L139.613 2.07373L143.547 2.07373L143.547 20.2074C142.583 17.4395 140.051 15.5356 137.143 15.3917C132.569 15.3917 127.994 20 127.994 27.4424C127.994 34.8848 132.157 39.7005 137.532 39.7005C140.199 39.5933 142.542 37.8864 143.479 35.3687L143.479 39.0092L150.912 39.0092L150.912 37.788L147.619 37.788L147.619 0.0691244ZM26.3948 27.7189L25.1825 27.7189L25.0224 28.8018C24.2676 34.4009 21.2942 37.7189 16.7197 37.7189L8.60003 37.7189L8.60003 19.9539L12.0995 19.9539C17.04 19.9539 17.8862 22.0737 17.8862 25.9217L19.0985 25.9217L19.0985 12.4654L17.8862 12.4654C17.8862 15.7373 16.857 18.7097 12.1453 18.7097L8.60003 18.7097L8.60003 2.00461L16.6511 2.00461C18.4383 1.85219 20.2096 2.4431 21.5532 3.63999C22.8969 4.83687 23.6959 6.53549 23.7645 8.34101C23.8398 8.7048 23.8782 9.07538 23.8788 9.447L25.1368 9.447L24.4964 0.78341L0 0.78341L0 2.00461L3.63672 2.00461L3.63672 37.7189L0 37.7189L0 38.9401L25.4113 38.9401L26.3948 27.7189ZM126.035 18.9329C126.132 19.761 125.752 20.5749 125.053 21.0282C124.337 21.4928 123.417 21.4928 122.701 21.0282C121.985 20.5636 121.604 19.7202 121.727 18.871C121.578 17.8778 122.142 16.9158 123.077 16.5668C122.925 16.4322 122.73 16.3584 122.528 16.3594C120.24 16.3594 116.924 21.6359 116.924 27.3272L116.924 37.5115L120.172 37.5115L120.172 38.7327L109.582 38.7327L109.582 37.5115L112.83 37.5115L112.83 17.0507L109.582 17.0507L109.582 15.8295L112.372 15.8295C113.936 15.9084 115.497 15.641 116.947 15.0461L116.947 20.8756C118.273 17.5115 120.126 15.1152 122.871 15.1152C123.821 15.1492 124.712 15.5929 125.316 16.3334C125.908 17.0601 126.169 18.0039 126.035 18.9329L126.035 18.9329ZM103.887 34.5853C103.887 36.4516 104.092 37.6959 105.076 37.6959L105.076 37.7189C105.739 37.7189 106.403 36.8433 107.134 35.8295L108.095 36.5438C107.259 38.274 105.564 39.4181 103.658 39.5392C101.684 39.4695 100.092 37.8864 99.9983 35.8986C98.9373 38.415 96.4171 39.9844 93.7083 39.8157C92.0855 39.8717 90.5091 39.2644 89.3375 38.1318C88.1658 36.9992 87.4984 35.4376 87.487 33.8018C87.487 28.8018 91.2153 26.1521 99.1291 26.1521L99.7924 26.1521L99.7924 20.8065C99.7924 17.9724 98.4887 16.659 96.0642 16.659C93.6397 16.659 91.9014 17.212 91.9014 18.6175C91.9014 20.023 93.2052 19.5161 93.2052 21.659C93.2073 22.8794 92.2645 23.8899 91.0551 23.9631C90.4265 23.929 89.8395 23.6354 89.4327 23.1514C89.0258 22.6674 88.835 22.0358 88.9051 21.4055C88.9051 17.9724 91.6727 15.2995 96.1557 15.2995C100.639 15.2995 103.887 17.4885 103.887 22.6959L103.887 34.5853ZM167.975 31.5899C167.967 36.5537 165.316 39.7465 161.388 39.7465C159.348 39.6219 157.391 38.8924 155.761 37.6498C155.121 37.6498 154.869 38.0415 154.869 39.1936L153.634 39.1936L153.634 31.083L154.549 31.083C155.052 35.6912 158.254 38.5253 161.045 38.5253C162.413 38.645 163.762 38.1393 164.719 37.1479C165.677 36.1566 166.141 34.7844 165.985 33.4101C165.985 30.6221 163.972 29.1936 160.656 29.0092C156.402 28.7558 153.954 26.4747 153.954 22.4194C153.79 20.6733 154.338 18.935 155.473 17.6048C156.608 16.2747 158.231 15.4673 159.97 15.3687C161.661 15.463 163.304 15.9775 164.75 16.8664C165.185 16.8664 165.322 16.5438 165.322 15.8986C165.351 15.7 165.351 15.4982 165.322 15.2995L166.557 15.2995L166.557 22.212L165.574 22.212C164.864 18.3871 163.08 16.7051 160.061 16.7051C157.83 16.6402 155.962 18.3978 155.876 20.6452C155.849 21.5393 156.123 22.4163 156.653 23.1336C157.934 24.5622 160.061 24.424 162.554 24.8157C165.876 25.2364 168.272 28.2302 167.975 31.5899ZM79.3902 16.0369L86.6408 16.0369L86.6408 17.2581C84.3535 17.2581 83.8046 18.0415 82.7753 20.9908L76.1195 40L75.6163 40L70.0811 24.7926L64.6832 40L64.2258 40L55.946 17.2581L53.3385 17.2581L53.3385 16.0369L63.0135 16.0369L63.0135 17.2581L60.7263 17.2581L66.2386 32.3733L69.5551 23.0184L67.4508 17.2581L64.5689 17.2581L64.5689 16.0369L75.1588 16.0369L75.1588 17.2581L72.0253 17.2581L77.5147 32.3733L81.3572 21.2673C81.717 20.4358 81.9261 19.5462 81.9748 18.6406C81.9748 17.7189 81.5402 17.2581 80.2136 17.2581L79.3902 17.2581L79.3902 16.0369ZM39.4321 38.4101C42.8401 38.4101 44.6699 35.2074 45.5848 31.4977L45.6076 23.9862C44.647 19.8617 42.4055 16.5899 39.4092 16.5899C36.4129 16.5899 34.8347 19.1935 34.8347 24.1935L34.8347 30.5991C34.8347 35.8986 36.0241 38.4101 39.4321 38.4101ZM137.395 38.4793C140.803 38.4793 142.61 35.2765 143.547 31.5668L143.433 24.0323C142.472 19.9078 140.231 16.6359 137.235 16.6359C134.238 16.6359 132.66 19.2396 132.66 24.2396L132.66 30.6452C132.66 35.9677 133.987 38.4793 137.395 38.4793ZM99.7924 33.0876C98.8775 36.0599 97.2764 38.1567 95.2179 38.1567C93.1594 38.1567 91.8099 36.4286 91.8099 33.1797C91.8099 29.0783 93.6855 27.1889 98.4201 27.1889L99.8839 27.1889L99.7924 33.0876Z" transform="translate(105 21)" id="Shape" fill="#262424" fill-rule="evenodd" stroke="none" />
  </g>
</svg>