<?xml version="1.0" encoding="utf-8"?>
<svg width="23px" height="30px" viewBox="0 0 23 30" version="1.1" xmlns:xlink="http://www.w3.org/1999/xlink" xmlns="http://www.w3.org/2000/svg">
  <desc>Created with Lunacy</desc>
  <path d="M1.97696 1.25181C-0.0051827 2.57181 -0.394468 6.69315 0.355532 10.0518C0.937674 12.6661 2.17696 16.1788 4.26267 19.4825C6.22339 22.5918 8.96625 25.3785 11.0555 26.9918C13.7377 29.0635 17.5627 30.3761 19.5448 29.0598C20.5448 28.3925 22.0305 26.5701 22.102 26.2438C22.102 26.2438 21.2305 24.8615 21.0377 24.5608L18.1127 19.9298C17.8912 19.5851 16.5305 19.9005 15.8377 20.3001C14.902 20.8465 14.0412 22.3021 14.0412 22.3021C13.402 22.6871 12.8662 22.3058 11.7412 21.7778C10.3662 21.1251 8.81625 19.1011 7.5841 17.2715C6.4591 15.3685 5.29125 13.0915 5.27339 11.5368C5.2591 10.2681 5.14482 9.60815 5.74125 9.16448C5.74125 9.16448 7.39125 8.95548 8.25553 8.29915C8.89482 7.81148 9.73053 6.66381 9.51267 6.31915L6.58767 1.68815C6.39482 1.38381 5.52339 0.00514776 5.52339 0.00514776C5.20196 -0.0645189 2.97696 0.584481 1.97696 1.25181" transform="translate(-0.0004882813 0)" id="Fill-1" fill="#888C8C" stroke="none" />
</svg>